HIERARCHY
ROOT Hips
{
	OFFSET -0.001795 -0.223333 0.028219
	CHANNELS 6 Xposition Yposition Zposition Zrotation Yrotation Xrotation 
	JOINT LeftUpLeg
	{
		OFFSET 0.069520 -0.091406 -0.006815
		CHANNELS 3 Zrotation Yrotation Xrotation
		JOINT LeftLeg
		{
			OFFSET 0.034277 -0.375199 -0.004496
			CHANNELS 3 Zrotation Yrotation Xrotation
			JOINT LeftFoot
			{
				OFFSET -0.013596 -0.397961 -0.043693
				CHANNELS 3 Zrotation Yrotation Xrotation
				JOINT LeftToe
				{
					OFFSET 0.026358 -0.055791 0.119288
					CHANNELS 3 Zrotation Yrotation Xrotation
					End Site
					{
						OFFSET 0.000000 0.000000 0.000000
					}
				}
			}
		}
	}
	JOINT RightUpLeg
	{
		OFFSET -0.067670 -0.090522 -0.004320
		CHANNELS 3 Zrotation Yrotation Xrotation
		JOINT RightLeg
		{
			OFFSET -0.038290 -0.382569 -0.008850
			CHANNELS 3 Zrotation Yrotation Xrotation
			JOINT RightFoot
			{
				OFFSET 0.015774 -0.398415 -0.042312
				CHANNELS 3 Zrotation Yrotation Xrotation
				JOINT RightToe
				{
					OFFSET -0.025372 -0.048144 0.123348
					CHANNELS 3 Zrotation Yrotation Xrotation
					End Site
					{
						OFFSET 0.000000 0.000000 0.000000
					}
				}
			}
		}
	}
	JOINT Spine
	{
		OFFSET -0.002533 0.108963 -0.026696
		CHANNELS 3 Zrotation Yrotation Xrotation
		JOINT Spine1
		{
			OFFSET 0.005487 0.135180 0.001092
			CHANNELS 3 Zrotation Yrotation Xrotation
			JOINT Spine2
			{
				OFFSET 0.001457 0.052922 0.025425
				CHANNELS 3 Zrotation Yrotation Xrotation
				JOINT Neck
				{
					OFFSET -0.002778 0.213870 -0.042857
					CHANNELS 3 Zrotation Yrotation Xrotation
					JOINT Head
					{
						OFFSET 0.005152 0.064970 0.051349
						CHANNELS 3 Zrotation Yrotation Xrotation
						End Site
						{
							OFFSET 0.000000 0.000000 0.000000
						}
					}
				}
				JOINT LeftShoulder
				{
					OFFSET 0.078845 0.121749 -0.034090
					CHANNELS 3 Zrotation Yrotation Xrotation
					JOINT LeftArm
					{
						OFFSET 0.090977 0.030469 -0.008868
						CHANNELS 3 Zrotation Yrotation Xrotation
						JOINT LeftForeArm
						{
							OFFSET 0.259612 -0.012772 -0.027456
							CHANNELS 3 Zrotation Yrotation Xrotation
							JOINT LeftHand
							{
								OFFSET 0.249234 0.008986 -0.001171
								CHANNELS 3 Zrotation Yrotation Xrotation
								End Site
								{
									OFFSET 0.000000 0.000000 0.000000
								}
							}
						}
					}
				}
				JOINT RightShoulder
				{
					OFFSET -0.081759 0.118833 -0.038615
					CHANNELS 3 Zrotation Yrotation Xrotation
					JOINT RightArm
					{
						OFFSET -0.096012 0.032551 -0.009143
						CHANNELS 3 Zrotation Yrotation Xrotation
						JOINT RightForeArm
						{
							OFFSET -0.253742 -0.013329 -0.021401
							CHANNELS 3 Zrotation Yrotation Xrotation
							JOINT RightHand
							{
								OFFSET -0.255298 0.007772 -0.005559
								CHANNELS 3 Zrotation Yrotation Xrotation
								End Site
								{
									OFFSET 0.000000 0.000000 0.000000
								}
							}
						}
					}
				}
			}
		}
	}
}
MOTION
Frames: 14
Frame Time: 0.050000
0.000000 0.650442 0.000000 4.140609 -4.792346 30.545595 29.443626 -6.541048 35.120485 -31.451297 -10.000151 -66.462748 49.439482 32.432657 92.125976 0.000000 0.000000 0.000000 -22.498470 6.862419 37.634290 23.251601 9.764398 -70.313885 -90.439612 -26.697804 126.064009 0.000000 0.000000 0.000000 3.028176 0.717246 -13.537983 10.107600 5.972682 -75.842832 -2.568504 5.014997 84.683121 -9.499632 2.561921 -105.420252 0.000000 0.000000 0.000000 -23.157320 8.183246 -3.278346 -38.334913 -0.158605 -15.062163 69.025458 60.858635 47.003389 0.000000 0.000000 0.000000 14.007959 -9.374501 -2.995494 43.648533 2.667988 -15.680887 -45.673907 -62.482882 36.322258 0.000000 0.000000 0.000000 
-0.001586 0.648510 0.003106 3.254325 -7.049640 32.876113 27.115334 -5.045249 34.388088 -27.123137 -6.820639 -65.667898 38.427401 30.171080 88.284680 0.000000 0.000000 0.000000 -23.549790 7.831615 35.116691 22.708107 10.314847 -71.064428 -87.725714 -26.100184 126.079208 0.000000 0.000000 0.000000 3.172585 0.834643 -13.835251 7.586289 6.623808 -78.816852 1.054644 3.299386 86.337695 -16.973220 1.877300 -107.070424 0.000000 0.000000 0.000000 -23.288814 6.966459 -2.010107 -39.589554 1.792668 -16.259001 61.076214 60.006151 40.944418 0.000000 0.000000 0.000000 12.401977 -11.873818 -4.759623 46.801042 1.451282 -17.007127 -48.298026 -58.143585 36.351118 0.000000 0.000000 0.000000 
-0.003144 0.648726 0.006339 2.356403 -8.084986 34.002432 27.448069 -5.011415 36.532072 -28.045447 -7.167852 -67.163605 34.154561 29.653919 83.705316 0.000000 0.000000 0.000000 -23.595329 7.978181 33.683353 23.258512 10.877157 -70.211677 -87.437482 -27.569550 123.868355 0.000000 0.000000 0.000000 3.083642 1.315679 -17.945979 11.596745 7.440400 -74.767950 -0.159137 6.800991 87.139665 -17.740022 0.785687 -113.073927 0.000000 0.000000 0.000000 -25.395001 6.215845 -1.951567 -37.658637 2.552626 -16.324415 55.424030 60.264571 36.094357 0.000000 0.000000 0.000000 14.735045 -9.286877 -2.562480 44.158070 4.422459 -16.166574 -37.760727 -66.581327 33.837911 0.000000 0.000000 0.000000 
-0.004786 0.646874 0.009531 2.184578 -8.697947 34.665842 27.656192 -4.933987 37.309154 -27.644771 -6.852924 -67.641342 32.429906 29.033643 83.813005 0.000000 0.000000 0.000000 -24.388688 8.631554 34.255696 24.224341 11.779559 -71.426508 -84.676038 -28.335581 122.399138 0.000000 0.000000 0.000000 3.438980 1.578745 -19.754563 10.152438 6.866880 -72.992878 1.935918 5.744159 86.387317 -23.833470 0.542935 -110.243448 0.000000 0.000000 0.000000 -25.469535 5.064563 -0.948585 -37.611840 3.580108 -16.332137 49.850005 60.784939 32.526106 0.000000 0.000000 0.000000 12.732534 -10.331147 -3.393879 44.485254 4.518748 -15.996247 -39.117307 -67.103452 35.436848 0.000000 0.000000 0.000000 
-0.006309 0.648470 0.012590 2.684957 -7.931476 34.537688 28.113077 -5.341060 37.186631 -27.471761 -7.042803 -67.611751 35.087531 29.693595 85.196582 0.000000 0.000000 0.000000 -23.465420 8.026933 34.768313 22.983977 10.897480 -71.755907 -83.866095 -27.514668 123.493246 0.000000 0.000000 0.000000 2.336939 1.541521 -20.482681 11.664750 6.679207 -71.583897 0.662699 6.717367 85.165786 -24.479573 0.546476 -109.740590 0.000000 0.000000 0.000000 -25.116878 4.471220 -0.934517 -38.559479 4.742982 -16.803698 47.627614 61.255749 31.093470 0.000000 0.000000 0.000000 13.619887 -9.833878 -2.925733 43.608956 4.987485 -15.541713 -32.022637 -69.776994 31.301787 0.000000 0.000000 0.000000 
-0.007436 0.647644 0.015235 2.130390 -8.207025 34.443300 28.434332 -5.464452 38.814572 -27.228893 -7.201787 -69.492264 37.861294 30.026860 88.059790 0.000000 0.000000 0.000000 -23.603568 8.274258 35.224156 23.656361 11.339856 -71.514946 -81.496098 -27.933802 122.371405 0.000000 0.000000 0.000000 3.062745 1.632573 -20.716315 11.616540 6.615739 -70.727533 1.406288 6.644142 84.626992 -24.483225 0.814696 -108.271245 0.000000 0.000000 0.000000 -25.253264 5.210327 -1.549751 -38.839145 5.298015 -16.890273 43.667525 60.180082 27.701768 0.000000 0.000000 0.000000 12.544353 -9.824654 -3.038393 43.886464 4.960650 -15.361266 -30.027341 -70.837159 30.192891 0.000000 0.000000 0.000000 
-0.008292 0.649443 0.017491 2.561228 -7.469541 34.245864 28.789584 -5.835640 38.507477 -27.464021 -7.532068 -69.154902 40.107728 30.732666 88.066616 0.000000 0.000000 0.000000 -23.294933 8.025065 36.138445 23.598949 11.098042 -71.916588 -79.533150 -27.781383 122.330319 0.000000 0.000000 0.000000 2.645557 1.545667 -20.750434 12.118606 6.433517 -70.498830 0.428682 6.975391 83.605438 -22.719780 1.092416 -107.381296 0.000000 0.000000 0.000000 -25.335643 5.413362 -1.925808 -38.875867 6.179821 -16.888866 40.600641 59.987500 25.319135 0.000000 0.000000 0.000000 12.640856 -9.557650 -2.861529 43.419914 4.676870 -15.091066 -26.515849 -72.123640 27.858514 0.000000 0.000000 0.000000 
-0.009042 0.648772 0.019662 2.193738 -7.871346 34.530007 28.616303 -5.657331 38.737785 -27.532546 -7.531044 -69.857315 42.122075 31.220239 88.837080 0.000000 0.000000 0.000000 -23.749956 8.314577 35.670074 24.024524 11.317118 -71.229260 -77.486445 -27.715410 121.919193 0.000000 0.000000 0.000000 2.742810 1.647103 -21.309358 12.030852 6.336632 -69.444212 0.613228 6.832640 82.470266 -24.206516 1.281127 -106.367237 0.000000 0.000000 0.000000 -26.211026 5.601741 -2.048884 -38.595632 6.476589 -16.699583 37.485254 60.081600 23.280840 0.000000 0.000000 0.000000 12.012990 -9.324857 -2.874778 44.033938 4.179787 -15.074104 -26.364569 -72.790667 27.849483 0.000000 0.000000 0.000000 
-0.009758 0.648952 0.021832 2.078341 -7.748756 34.462969 28.880963 -5.776925 38.625546 -27.845272 -7.737918 -69.946647 42.569768 31.458352 88.450585 0.000000 0.000000 0.000000 -23.703937 8.217936 35.435195 24.173420 11.205394 -70.385958 -76.701425 -27.557438 121.971410 0.000000 0.000000 0.000000 2.805352 1.660642 -21.475199 11.648668 6.202900 -69.404743 0.547391 6.721750 82.330401 -24.301189 1.427050 -105.952402 0.000000 0.000000 0.000000 -27.094266 5.776352 -2.190458 -37.968916 6.479051 -16.476315 35.136154 59.910619 21.534031 0.000000 0.000000 0.000000 12.880136 -9.662823 -3.031518 44.106329 3.316274 -15.411660 -27.010317 -72.516008 28.091051 0.000000 0.000000 0.000000 
-0.010467 0.649000 0.023931 1.910028 -7.731599 34.555365 28.528152 -5.653791 38.740102 -27.489839 -7.611082 -70.296574 42.251491 31.328406 88.564275 0.000000 0.000000 0.000000 -23.336889 8.051858 35.404923 23.402597 10.818024 -70.369272 -74.987043 -26.949096 122.556453 0.000000 0.000000 0.000000 2.567542 1.685999 -21.804350 11.016044 6.138856 -69.963435 0.385695 5.591231 82.802203 -25.107955 1.708897 -105.424976 0.000000 0.000000 0.000000 -27.487002 6.520370 -2.260394 -38.665414 6.027121 -16.815497 33.734533 59.753031 21.166751 0.000000 0.000000 0.000000 11.966487 -10.163017 -3.571406 45.449160 1.457986 -16.243070 -29.712161 -70.246017 28.891950 0.000000 0.000000 0.000000 
-0.011301 0.649474 0.025871 1.810741 -7.925403 34.376018 28.795516 -5.618794 38.213171 -27.807950 -7.676606 -70.248529 42.910641 31.438798 89.040636 0.000000 0.000000 0.000000 -22.942899 7.860252 35.044299 22.834025 10.386718 -69.065878 -74.645603 -27.198907 121.845894 0.000000 0.000000 0.000000 2.122984 1.715197 -22.148092 10.010281 5.659481 -68.566552 0.437001 4.817835 81.269791 -24.364438 2.085802 -104.431492 0.000000 0.000000 0.000000 -27.603280 6.659077 -2.133615 -38.975108 5.902211 -16.682487 31.936651 59.124742 19.969902 0.000000 0.000000 0.000000 12.667790 -10.058127 -3.676450 45.561619 -1.324307 -16.816568 -29.976518 -67.002322 26.578277 0.000000 0.000000 0.000000 
-0.012305 0.649603 0.027499 1.459964 -8.054243 34.441303 28.607489 -5.468015 37.976089 -27.661891 -7.508144 -70.206277 43.884247 31.813561 88.949607 0.000000 0.000000 0.000000 -22.381526 7.574394 34.497879 21.812767 9.861655 -68.436112 -73.770113 -26.490499 122.672149 0.000000 0.000000 0.000000 1.710735 1.713394 -22.202654 9.171394 5.621849 -69.341475 0.192619 3.522412 81.669377 -24.036908 2.566908 -103.557742 0.000000 0.000000 0.000000 -27.944120 7.409441 -2.131650 -39.029624 5.120148 -16.635633 30.769035 58.811894 19.524359 0.000000 0.000000 0.000000 12.045460 -10.431536 -4.162215 45.888217 -4.580780 -17.833271 -31.537304 -63.248363 25.111777 0.000000 0.000000 0.000000 
-0.013242 0.649230 0.028749 1.359794 -7.896611 34.407834 28.925715 -5.549213 37.202924 -27.947233 -7.576056 -69.762339 45.474091 32.336856 88.999789 0.000000 0.000000 0.000000 -21.622830 7.173499 34.432552 20.945680 9.345801 -67.972513 -73.587430 -26.386634 122.657078 0.000000 0.000000 0.000000 1.035408 1.672339 -22.356318 8.213323 5.198578 -68.561986 -0.444474 2.398611 80.605773 -24.707584 2.779251 -103.529874 0.000000 0.000000 0.000000 -28.248459 7.526385 -1.802150 -39.252635 4.287291 -16.434455 28.778893 59.588647 18.947625 0.000000 0.000000 0.000000 12.462877 -10.330080 -4.346508 45.489114 -7.705548 -18.476326 -32.848886 -59.114710 23.205336 0.000000 0.000000 0.000000 
-0.013937 0.648728 0.029673 0.789742 -8.489806 34.310258 28.863368 -5.316970 37.542777 -28.261625 -7.511599 -69.679412 46.245066 32.659916 88.942154 0.000000 0.000000 0.000000 -21.394325 7.202616 34.068491 20.190407 9.099066 -67.200037 -71.974761 -26.032952 122.613647 0.000000 0.000000 0.000000 0.756025 1.670085 -21.850731 7.580515 5.464998 -70.031708 -0.666658 1.674053 81.543133 -23.798771 3.101484 -103.245910 0.000000 0.000000 0.000000 -27.975679 7.940950 -1.601372 -39.110267 3.219615 -16.303104 28.473825 60.335491 19.406386 0.000000 0.000000 0.000000 11.007338 -10.761296 -4.782087 44.996256 -10.650722 -19.188347 -35.473823 -55.206451 22.347401 0.000000 0.000000 0.000000 
